# xmcd
#
# Track frame offsets:
#	150
#	18382
#	37085
#	56830
#	74100
#	94010
#	112905
#	131742
#	153022
#	171917
#	188560
#
# Disc length: 2758 seconds
#
# Revision: 0
# Processed by: cddbd v1.5.2PL0 Copyright (c) Steve Scherf et al.
# Submitted via: audiograbber 1.83.01
#
DISCID=940ac40b
DTITLE=Tracy Nelson - Move On
DYEAR=1996
DGENRE=Blues
TTITLE0=Livin' On Love
TTITLE1=Got Me Goin'
TTITLE2=(I Was) Good To You Baby
TTITLE3=Playing It Safe
TTITLE4=Tonight I'll Dream
TTITLE5=Drowning In Memories
TTITLE6=Ladies' Man
TTITLE7=Move On
TTITLE8=You Never Broke My Heart
TTITLE9=Somebody Loves You
TTITLE10=Playin' It Safe [alternate version] [bonus track]
EXTD=
EXTT0=
EXTT1=
EXTT2=
EXTT3=
EXTT4=
EXTT5=
EXTT6=
EXTT7=
EXTT8=
EXTT9=
EXTT10=
PLAYORDER=
